<svg xmlns="http://www.w3.org/2000/svg" viewBox="0 0 16 16" id="path"><path fill="#C62828" d="M15.996 5.749C15.909 3.53 13.868-.042 7.947 0 1.764.044-.043 4.185.001 6.552.044 8.92 1.59 10.23 1.59 10.23l2.308-1.902s-.98.084-.98-1.86c0-2.962 3.549-3.72 5.813-3.678 2.264.042 4.051 1.87 4.082 3.297.03 1.395-.34 2.28-1.47 2.916-1.35.761-2.986.085-2.986.085l.022-4.776-3.052.018-.008 8.436s-.028.675-.816.634c-.565-.029-1.279-.65-1.279-.65l.005 2.51s.881.74 2.275.74c3.005 0 2.874-2.938 2.874-2.938v-1.655s.613.296 1.832.296c5.052 0 5.859-4.093 5.786-5.954z"></path></svg>